<svg width="129" height="67" viewBox="0 0 129 67" fill="none" xmlns="http://www.w3.org/2000/svg">
<path d="M45.3401 31.9684C45.4207 33.9075 43.4165 37.2117 41.8528 39.6285C37.6893 46.0569 30.4542 50.3104 22.2233 50.3104C11.8454 50.3104 3.04666 43.5439 0 34.1867C1.37751 32.2135 6.87516 29.1855 12.0657 31.168C14.4794 32.0894 21.9844 37.0627 26.1728 37.1372C22.2512 42.4115 16.223 41.2201 13.5859 39.8209C14.3088 41.6017 18.2583 43.7952 22.8438 43.7052C30.6993 43.5501 33.6684 40.3111 37.6148 36.3305C39.7338 34.1898 42.4858 31.5558 45.3401 31.9653V31.9684Z" fill="#B54826"/>
<path d="M25.1804 33.6096C16.633 31.0191 0.220703 23.1232 0.220703 11.8052C0.220703 5.78325 5.10405 0.899902 11.1291 0.899902C11.2005 0.899902 11.2687 0.906107 11.337 0.90921C12.8572 0.868877 14.5388 1.17913 16.3879 2.0044C19.5835 3.42845 21.8979 6.06558 23.1979 7.87124C22.385 9.38836 21.6714 11.1909 21.1006 13.3379C18.1098 24.5938 22.8349 31.1711 25.1773 33.6065L25.1804 33.6096ZM45.9641 7.9457C45.9641 7.9457 34.7826 11.3585 31.0938 21.3516C31.0938 21.3516 31.9438 10.1547 44.5338 5.33649C44.5338 5.33649 41.1831 2.77071 36.8582 2.6249C31.9345 2.45736 26.0429 4.63842 23.3654 14.7092C19.7417 28.3509 28.1495 34.6924 28.1495 34.6924C28.1495 34.6924 28.9903 31.2114 33.4362 28.537C37.8852 25.8596 51.0243 18.6494 45.9641 7.9457Z" fill="#578E3F"/>
<path d="M77.3515 16.2946L80.9194 15.7703V14.4672H71.6925V15.7703L75.5986 16.2573L69.4587 29.1638L63.3189 16.217L67.377 15.7703V14.4672H56.5864V15.7703L59.7479 16.1426L67.0729 30.9136C67.0729 34.559 67.0729 37.2024 67.0047 39.8426L62.7263 40.2553V41.5924H74.5903V40.2553L70.3119 39.8426C70.2375 37.1621 70.2375 34.5249 70.2375 30.8795L77.3484 16.2946H77.3515ZM82.6351 30.3986C83.0756 25.6735 85.7965 23.4397 88.5112 23.4397C91.378 23.4397 93.3481 25.782 93.3481 28.3882C93.3481 29.5795 92.9757 30.3986 91.3376 30.3986H82.6351ZM95.8766 31.8475C96.0627 31.289 96.1372 30.5103 96.1372 29.5392C96.1372 24.8885 93.0099 21.9536 88.6974 21.9536C83.7861 21.9536 79.5822 25.9372 79.5822 32.1453C79.5822 38.3534 83.3363 42.1199 88.5454 42.1199C92.0047 42.1199 94.5735 40.4042 96.0969 37.7236L95.3181 37.131C93.8662 38.8808 92.1195 40.0319 89.4761 40.0319C85.5359 40.0319 82.6351 37.3172 82.5917 31.8102L95.8766 31.8444V31.8475ZM105.29 39.9233C105.255 37.7267 105.215 35.3067 105.215 33.1164V17.6349L105.33 11.9076L104.771 11.5695L99.0039 13.1331V14.2842L102.389 14.5851V33.1133C102.389 35.3036 102.355 37.7236 102.314 39.9202L98.855 40.4042V41.5955H108.64V40.4042L105.293 39.9202L105.29 39.9233ZM114.743 30.4017C115.19 25.6766 117.904 23.4428 120.619 23.4428C123.486 23.4428 125.456 25.7852 125.456 28.3913C125.456 29.5826 125.084 30.4017 123.445 30.4017H114.743ZM127.984 31.8506C128.171 31.2921 128.245 30.5134 128.245 29.5423C128.245 24.8916 125.118 21.9567 120.805 21.9567C115.894 21.9567 111.69 25.9403 111.69 32.1484C111.69 38.3565 115.444 42.123 120.653 42.123C124.119 42.123 126.681 40.4073 128.211 37.7267L127.426 37.1341C125.977 38.8839 124.227 40.035 121.584 40.035C117.644 40.035 114.743 37.3203 114.7 31.8133L127.984 31.8475V31.8506Z" fill="#B54826"/>
<path d="M3.00323 66.9523C1.94527 66.9523 1.17895 66.6886 0.707372 66.1642C0.235791 65.6399 0 64.7929 0 63.6233V62.4878H2.29586V63.9397C2.29586 64.5168 2.48201 64.8084 2.85121 64.8084C3.05907 64.8084 3.20179 64.7464 3.28556 64.6254C3.36932 64.5044 3.40966 64.2965 3.40966 64.008C3.40966 63.6264 3.36312 63.313 3.27315 63.0648C3.18628 62.8166 3.07148 62.6088 2.92877 62.4381C2.78605 62.2706 2.53475 62.0131 2.17486 61.6594L1.16965 60.6542C0.390916 59.8941 0 59.0502 0 58.1287C0 57.1328 0.229586 56.3758 0.688757 55.8577C1.14483 55.3365 1.81187 55.0759 2.69298 55.0759C3.74163 55.0759 4.49864 55.3551 4.96091 55.9105C5.42008 56.4658 5.64967 57.3376 5.64967 58.5259H3.27315L3.26384 57.7254C3.26384 57.5703 3.2204 57.4493 3.13043 57.3562C3.04666 57.2663 2.92567 57.2197 2.77364 57.2197C2.59059 57.2197 2.45408 57.2694 2.36411 57.3717C2.27724 57.4679 2.2307 57.6044 2.2307 57.7782C2.2307 58.1598 2.44788 58.5538 2.88223 58.9602L4.24113 60.2602C4.55758 60.5673 4.8213 60.859 5.02917 61.1382C5.23703 61.4143 5.40457 61.7401 5.53488 62.1124C5.66208 62.4909 5.72413 62.9345 5.72413 63.4495C5.72413 64.6006 5.51316 65.4693 5.09122 66.0619C4.66928 66.6544 3.97431 66.9523 3.00633 66.9523H3.00323ZM8.36126 66.9523C7.61976 66.9523 7.11095 66.732 6.83483 66.2883C6.56181 65.8447 6.42529 65.1839 6.42529 64.3027V56.9064H8.81112V64.34C8.81112 64.613 8.85456 64.8053 8.94453 64.9201C9.0283 65.0318 9.16171 65.0908 9.34476 65.0908C9.58985 65.0908 9.74498 64.9915 9.80703 64.7898C9.86908 64.5851 9.9001 64.2934 9.9001 63.9118V63.8312L9.91562 56.9064H12.2766V66.8437H9.9001V65.7826C9.73567 66.2015 9.54642 66.4993 9.32924 66.6793C9.11207 66.8623 8.78941 66.9523 8.36436 66.9523H8.36126ZM15.95 66.9523C13.9861 66.9523 13.0026 65.9564 13.0026 63.9646L13.0181 63.1765H15.3946L15.4102 64.3462C15.4102 64.582 15.4567 64.7619 15.5467 64.8829C15.6366 65.0039 15.7856 65.066 15.9934 65.066C16.3099 65.066 16.4681 64.8084 16.4681 64.2934C16.4681 63.9118 16.3937 63.614 16.2416 63.3937C16.0927 63.1765 15.8569 62.9469 15.5312 62.7049L14.2684 61.7246C13.8341 61.3926 13.5238 61.0451 13.3346 60.6883C13.1422 60.3315 13.046 59.8258 13.046 59.1743C13.046 58.6686 13.1795 58.2373 13.4463 57.8774C13.7131 57.5207 14.0699 57.2476 14.5104 57.0677C14.9541 56.8877 15.4474 56.7978 15.9903 56.7978C17.917 56.7978 18.8788 57.7564 18.8788 59.6738V59.8662H16.4216V59.4845C16.4216 59.2488 16.3843 59.0471 16.3099 58.8827C16.2323 58.7151 16.102 58.6314 15.9221 58.6314C15.7576 58.6314 15.6335 58.6779 15.5436 58.7741C15.4598 58.8671 15.4164 58.9974 15.4164 59.1619C15.4164 59.5218 15.556 59.8041 15.8352 59.9996L17.2996 61.073C17.8239 61.4639 18.2272 61.8859 18.5096 62.342C18.7888 62.8011 18.9284 63.3782 18.9284 64.0732C18.9284 64.9977 18.6647 65.7082 18.1404 66.2077C17.616 66.7041 16.8807 66.9523 15.9376 66.9523H15.95ZM21.7207 66.9523C21.0971 66.9523 20.6689 66.822 20.4331 66.5614C20.1973 66.2977 20.0794 65.8757 20.0794 65.2986V59.0967H19.4155V57.288H20.0794V55.1845H22.3846V57.288H23.064V59.0967H22.3846V64.6719C22.3846 64.8457 22.4001 64.9729 22.428 65.0535C22.456 65.1342 22.5273 65.1745 22.6452 65.1745C22.7352 65.1745 22.8221 65.1683 22.9058 65.159C22.9896 65.1497 23.0423 65.1435 23.0672 65.1435V66.7754C22.9306 66.8096 22.7352 66.8468 22.4777 66.8871C22.2202 66.9275 21.9689 66.9492 21.7238 66.9492L21.7207 66.9523ZM25.6174 66.9523C24.848 66.9523 24.3206 66.6948 24.0351 66.1829C23.7528 65.674 23.6101 64.9419 23.6101 63.9925C23.6101 63.2169 23.7094 62.6181 23.911 62.2023C24.1158 61.7866 24.3981 61.4826 24.758 61.2871C25.121 61.0916 25.6764 60.8776 26.4179 60.6418L27.0694 60.4246V59.407C27.0694 59.1433 27.0166 58.9416 26.9143 58.8051C26.8119 58.6624 26.6878 58.5941 26.542 58.5941C26.4117 58.5941 26.3031 58.6531 26.2069 58.7679C26.1138 58.8858 26.0642 59.0471 26.0642 59.2425V59.8413H23.7559V59.5156C23.7559 58.5383 23.9855 57.8402 24.4447 57.4214C24.9007 57.0056 25.6453 56.7978 26.6785 56.7978C27.5006 56.7978 28.1708 57.0118 28.6858 57.4431C29.2008 57.8712 29.4583 58.4793 29.4583 59.2674V66.8406H27.0973V65.6585C26.9794 66.0681 26.7902 66.3845 26.5327 66.611C26.2751 66.8375 25.9711 66.9492 25.6174 66.9492V66.9523ZM26.5544 65.1032C26.7343 65.1032 26.8615 65.0287 26.9422 64.8829C27.0166 64.7309 27.0539 64.5478 27.0539 64.3307V61.5632C26.7033 61.6997 26.4427 61.8704 26.2751 62.0782C26.1045 62.2861 26.0207 62.5746 26.0207 62.9469V64.2252C26.0207 64.8116 26.1976 65.1063 26.5544 65.1063V65.1032ZM32.7284 56.2424H30.3518V54.5826H32.7284V56.2424ZM32.7284 66.8437H30.3518V56.9064H32.7284V66.8437ZM33.6653 66.8437V56.9064H36.0418V58.1691C36.138 57.7595 36.3118 57.4276 36.5569 57.1732C36.802 56.9219 37.1277 56.7947 37.5373 56.7947C38.2074 56.7947 38.7007 56.9994 39.0233 57.4121C39.3429 57.8247 39.5042 58.4111 39.5042 59.1712V66.8406H37.1712V59.4163C37.1712 59.1991 37.1277 59.013 37.0377 58.8609C36.954 58.7058 36.8206 58.6314 36.6375 58.6314C36.3955 58.6314 36.2342 58.7399 36.1566 58.9602C36.0822 59.1836 36.0449 59.4814 36.0449 59.8506V66.8406H33.6684L33.6653 66.8437ZM42.2438 66.9523C41.4743 66.9523 40.9469 66.6948 40.6615 66.1829C40.3791 65.674 40.2364 64.9419 40.2364 63.9925C40.2364 63.2169 40.3357 62.6181 40.5374 62.2023C40.7421 61.7866 41.0245 61.4826 41.3844 61.2871C41.7474 61.0916 42.3027 60.8776 43.0442 60.6418L43.6957 60.4246V59.407C43.6957 59.1433 43.643 58.9416 43.5406 58.8051C43.4382 58.6624 43.3141 58.5941 43.1683 58.5941C43.038 58.5941 42.9294 58.6531 42.8332 58.7679C42.7402 58.8858 42.6905 59.0471 42.6905 59.2425V59.8413H40.3823V59.5156C40.3823 58.5383 40.6118 57.8402 41.071 57.4214C41.5271 57.0056 42.2717 56.7978 43.3048 56.7978C44.127 56.7978 44.7971 57.0118 45.3121 57.4431C45.8272 57.8712 46.0847 58.4793 46.0847 59.2674V66.8406H43.7236V65.6585C43.6058 66.0681 43.4165 66.3845 43.159 66.611C42.9015 66.8375 42.5974 66.9492 42.2438 66.9492V66.9523ZM43.1807 65.1032C43.3607 65.1032 43.4879 65.0287 43.5685 64.8829C43.643 64.7309 43.6802 64.5478 43.6802 64.3307V61.5632C43.3296 61.6997 43.069 61.8704 42.9015 62.0782C42.7309 62.2861 42.6471 62.5746 42.6471 62.9469V64.2252C42.6471 64.8116 42.8239 65.1063 43.1807 65.1063V65.1032ZM50.8346 66.9523C50.1831 66.9523 49.7177 66.5614 49.4354 65.7826V66.8437H46.9937V55.1162H49.4354V57.3841C49.817 56.9932 50.2606 56.8009 50.7694 56.8009C51.5358 56.8009 52.088 57.0274 52.4231 57.4834C52.7551 57.9426 52.9226 58.6003 52.9226 59.4597V64.2531C52.9226 65.066 52.7519 65.7206 52.4076 66.2139C52.0663 66.7072 51.5389 66.9554 50.8346 66.9554V66.9523ZM50.0342 65.1032C50.1986 65.1032 50.3134 65.0504 50.3785 64.9481C50.4468 64.8457 50.4871 64.7154 50.5026 64.5571C50.5181 64.3958 50.5275 64.1507 50.5275 63.8156V59.6738C50.5275 59.3232 50.4964 59.0595 50.4344 58.8858C50.3692 58.7151 50.2327 58.6314 50.0248 58.6314C49.7984 58.6314 49.6432 58.7151 49.5626 58.8858C49.4819 59.0595 49.4385 59.3139 49.4385 59.649V63.8156C49.4385 64.25 49.4757 64.5727 49.5471 64.7867C49.6184 64.9977 49.7829 65.1032 50.0373 65.1032H50.0342ZM56.2081 66.8437H53.7944V55.1162H56.2081V66.8437ZM59.9405 66.9523C58.9197 66.9523 58.1875 66.67 57.7439 66.1084C57.3002 65.5499 57.0799 64.7123 57.0799 63.6016V59.6086C57.0799 58.6934 57.3437 57.9953 57.868 57.5144C58.3923 57.0367 59.1245 56.7978 60.0646 56.7978C61.9757 56.7978 62.9313 57.7347 62.9313 59.6055V60.3253C62.9313 61.0482 62.922 61.6346 62.9034 62.0875H59.4565V64.0142C59.4565 64.3555 59.4937 64.6254 59.5651 64.8209C59.6364 65.0163 59.7915 65.1125 60.0273 65.1125C60.2073 65.1125 60.3345 65.0598 60.4151 64.9512C60.4896 64.8426 60.5361 64.7154 60.5517 64.5727C60.5641 64.433 60.5703 64.2283 60.5703 63.9553V62.9935H62.9313V63.5643C62.9313 64.7247 62.7079 65.5779 62.258 66.1239C61.8113 66.67 61.0419 66.943 59.9436 66.943L59.9405 66.9523ZM59.441 60.9086H60.5672V59.6366C60.5672 58.9199 60.3903 58.5631 60.0397 58.5631C59.6395 58.5631 59.441 58.9199 59.441 59.6366V60.9086ZM67.0018 66.8437V55.1814H70.2222C71.0536 55.1814 71.6773 55.411 72.093 55.8732C72.5118 56.3355 72.7228 57.0181 72.729 57.924L72.7569 63.3813C72.7662 64.5292 72.5677 65.3917 72.1581 65.975C71.7517 66.5521 71.0785 66.8437 70.1353 66.8437H67.0018ZM69.3504 64.7805H69.7599C70.185 64.7805 70.3959 64.5727 70.3959 64.1569V58.1412C70.3959 57.8774 70.3742 57.682 70.3339 57.5517C70.2935 57.4183 70.2191 57.3314 70.1136 57.2818C70.005 57.2383 69.8344 57.2166 69.6079 57.2166H69.3473V64.7774L69.3504 64.7805ZM76.0146 56.2455H73.638V54.5857H76.0146V56.2455ZM76.0146 66.8468H73.638V56.9095H76.0146V66.8468ZM76.9515 66.8468V56.9095H79.328V58.1722C79.4273 57.7627 79.6011 57.4307 79.8462 57.1763C80.0882 56.925 80.4139 56.7978 80.8203 56.7978C81.4905 56.7978 81.9838 57.0025 82.3064 57.4152C82.6291 57.8278 82.7873 58.4142 82.7873 59.1743V66.8437H80.4543V59.4194C80.4543 59.2022 80.4108 59.0161 80.327 58.864C80.2402 58.7089 80.1068 58.6345 79.9268 58.6345C79.6817 58.6345 79.5204 58.743 79.4459 58.9633C79.3684 59.1867 79.328 59.4845 79.328 59.8537V66.8437H76.9515V66.8468ZM83.7243 66.8468V56.9095H86.1008V58.1722C86.2001 57.7627 86.3738 57.4307 86.6189 57.1763C86.8609 56.925 87.1867 56.7978 87.5931 56.7978C88.2633 56.7978 88.7566 57.0025 89.0792 57.4152C89.4019 57.8278 89.5632 58.4142 89.5632 59.1743V66.8437H87.2239V59.4194C87.2239 59.2022 87.1805 59.0161 87.0967 58.864C87.013 58.7089 86.8795 58.6345 86.6965 58.6345C86.4514 58.6345 86.2901 58.743 86.2156 58.9633C86.1381 59.1867 86.0977 59.4845 86.0977 59.8537V66.8437H83.7212L83.7243 66.8468ZM93.2831 66.9554C92.2593 66.9554 91.524 66.6731 91.0803 66.1115C90.6367 65.5531 90.4164 64.7154 90.4164 63.6047V59.6117C90.4164 58.6965 90.6801 57.9984 91.2044 57.5176C91.7288 57.0398 92.4641 56.8009 93.4072 56.8009C95.3153 56.8009 96.2677 57.7378 96.2677 59.6086V60.3284C96.2677 61.0513 96.2584 61.6377 96.2429 62.0906H92.7929V64.0173C92.7929 64.3586 92.8302 64.6285 92.9015 64.824C92.9729 65.0194 93.128 65.1156 93.3638 65.1156C93.5468 65.1156 93.674 65.0629 93.7516 64.9543C93.8292 64.8457 93.8757 64.7185 93.8881 64.5758C93.9005 64.4361 93.9067 64.2314 93.9067 63.9584V62.9966H96.2677V63.5674C96.2677 64.7278 96.0444 65.581 95.5976 66.127C95.1477 66.6731 94.3783 66.9461 93.2831 66.9461V66.9554ZM92.7774 60.9117H93.9036V59.6397C93.9036 58.923 93.7268 58.5662 93.3762 58.5662C92.976 58.5662 92.7774 58.923 92.7774 59.6397V60.9117ZM97.124 66.8468V56.9095H99.5005V58.0078C99.6153 57.6168 99.8232 57.319 100.118 57.108C100.41 56.8939 100.776 56.7885 101.21 56.7885V58.7679C100.875 58.7679 100.506 58.8175 100.102 58.9137C99.6991 59.0068 99.5005 59.1184 99.5005 59.2425V66.8468H97.124ZM105.473 66.8468H102.839L101.632 56.9095H103.667L104.331 62.2458L104.902 56.9095H106.981L107.66 62.2458L108.215 56.9095H110.456L109.177 66.8468H106.801L106.093 61.2002L105.47 66.8468H105.473ZM113.046 66.9554C112.277 66.9554 111.749 66.6979 111.464 66.186C111.181 65.6771 111.039 64.945 111.039 63.9956C111.039 63.22 111.141 62.6212 111.346 62.2054C111.548 61.7897 111.83 61.4857 112.193 61.2902C112.553 61.0947 113.105 60.8807 113.847 60.6449L114.498 60.4277V59.4101C114.498 59.1464 114.445 58.9447 114.343 58.8082C114.241 58.6655 114.116 58.5972 113.971 58.5972C113.843 58.5972 113.735 58.6562 113.636 58.771C113.543 58.8889 113.493 59.0502 113.493 59.2456V59.8444H111.185V59.5187C111.185 58.5414 111.414 57.8433 111.873 57.4245C112.329 57.0087 113.074 56.8009 114.107 56.8009C114.929 56.8009 115.599 57.0149 116.114 57.4462C116.63 57.8743 116.887 58.4824 116.887 59.2705V66.8437H114.526V65.6616C114.408 66.0712 114.219 66.3876 113.961 66.6141C113.704 66.8406 113.4 66.9523 113.046 66.9523V66.9554ZM113.983 65.1063C114.163 65.1063 114.29 65.0318 114.371 64.886C114.445 64.734 114.483 64.5509 114.483 64.3338V61.5663C114.132 61.7028 113.871 61.8735 113.704 62.0813C113.533 62.2892 113.449 62.5777 113.449 62.95V64.2283C113.449 64.8147 113.626 65.1094 113.983 65.1094V65.1063ZM117.796 66.8468V56.9095H120.173V58.0078C120.287 57.6168 120.495 57.319 120.79 57.108C121.085 56.8939 121.451 56.7885 121.882 56.7885V58.7679C121.547 58.7679 121.178 58.8175 120.774 58.9137C120.371 59.0068 120.173 59.1184 120.173 59.2425V66.8468H117.796ZM125.248 66.9554C124.228 66.9554 123.495 66.6731 123.052 66.1115C122.605 65.5531 122.382 64.7154 122.382 63.6047V59.6117C122.382 58.6965 122.645 57.9984 123.17 57.5176C123.697 57.0398 124.432 56.8009 125.372 56.8009C127.284 56.8009 128.239 57.7378 128.239 59.6086V60.3284C128.239 61.0513 128.23 61.6377 128.211 62.0906H124.761V64.0173C124.761 64.3586 124.798 64.6285 124.87 64.824C124.944 65.0194 125.099 65.1156 125.332 65.1156C125.515 65.1156 125.642 65.0629 125.72 64.9543C125.797 64.8457 125.844 64.7185 125.856 64.5758C125.872 64.4361 125.881 64.2314 125.881 63.9584V62.9966H128.242V63.5674C128.242 64.7278 128.019 65.581 127.569 66.127C127.122 66.6731 126.353 66.9461 125.254 66.9461L125.248 66.9554ZM124.749 60.9117H125.875V59.6397C125.875 58.923 125.698 58.5662 125.341 58.5662C124.944 58.5662 124.749 58.923 124.749 59.6397V60.9117Z" fill="#578E3F"/>
</svg>
